<svg version="1.1" id="Layer_1" xmlns="http://www.w3.org/2000/svg" xmlns:xlink="http://www.w3.org/1999/xlink" height="25" width="25"
	 viewBox="131 -131 512 512" style="enable-background:new 131 -131 512 512;" xml:space="preserve">
<g id="XMLID_2_">
	<path id="XMLID_8_" d="M387-131c-141.8,0-256,114.2-256,256s114.2,256,256,256s256-114.2,256-256S528.8-131,387-131z M387-88.5
		c117.4,0,213.5,95.3,213.5,213.5S504.4,338.5,387,338.5S173.5,242.4,173.5,125S269.6-88.5,387-88.5z M393.3-19.9
		c-27.6,0-50.4,7.1-67.7,21.3c-17.3,14.2-26,33.9-25.2,59.1l0.8,1.6h49.6c0-12.6,3.9-22.1,11.8-28.4c7.9-6.3,18.1-9.5,29.9-9.5
		c13.4,0,24.4,3.9,31.5,11.8c7.9,7.9,11,18.1,11,31.5c0,11.8-3.2,22.8-9.5,33.1c-6.3,9.5-15,19.7-26,30.7
		c-15.8,13.4-26,24.4-29.9,33.1c-4.7,8.7-7.1,22.8-7.1,43.3h52c0-12.6,0.8-21.3,3.2-27.6c2.4-6.3,7.1-12.6,15-19.7
		c15.8-12.6,29.1-26.8,39.4-42.5s15.8-32.3,15.8-50.4c0-26.8-7.9-48-25.2-63C446.1-12.1,422.4-19.9,393.3-19.9L393.3-19.9z
		 M362.6,244.7v49.6h52.8v-49.6H362.6z"/>
</g>
</svg>
